<?xml version="1.0" encoding="UTF-8"?>
<svg xmlns="http://www.w3.org/2000/svg" version="1.1" viewBox="0 0 470 248">
  <defs>
    <style>
      .cls-1 {
        fill: #989ba2;
      }

      .cls-2 {
        fill: none;
      }

      .cls-2, .cls-3 {
        stroke: #c2c4c8;
      }

      .cls-3 {
        fill: #fff;
      }
    </style>
  </defs>
  <!-- Generator: Adobe Illustrator 28.7.3, SVG Export Plug-In . SVG Version: 1.2.0 Build 164)  -->
  <g>
    <g id="_레이어_1" data-name="레이어_1">
      <g class="teeth">
        <path class="tooth cls-3" d="M44.5,126.6c-.2,5.4-.5,8.2-1,10.8-.3,1.8-1.1,4.8-2.7,7.2-.8,1.2-1.8,2.2-3,2.8-1.2.6-2.7.9-4.5.5-1.5-.3-2.6-1.4-3.4-3.2s-1.3-4-1.6-6.4c-.6-4.8-.3-9.8-.1-11.3,0-.2,0-.3,0-.5.2-2,.4-3.7.8-4.9.2-.6.6-1.1,1-1.4.4-.3,1-.4,1.7-.4.7,0,1.9.4,3.2,1,1.4.5,2.9,1.2,4.3,2,1.4.8,2.8,1.6,3.7,2.3.5.4.8.7,1.1,1,.3.3.3.5.3.5Z"/>
        <path class="tooth cls-1" d="M26.5,167.2v-1.1l4.1-6.3h1.7v6.2h1.3v1.2h-1.3v1.8h-1.3v-1.8h-4.5ZM27.9,166h3v-4.6h-.1l-2.9,4.5h0ZM38.1,169.1c-2,0-3.4-1.1-3.4-2.6,0-1.2.8-2.1,1.9-2.3h0c-.9-.3-1.6-1.1-1.6-2.1s1.3-2.4,3-2.4,3,1,3,2.4c0,1-.6,1.8-1.6,2.1h0c1.1.2,1.9,1.2,1.9,2.4,0,1.5-1.4,2.6-3.4,2.6ZM38.1,168c1.2,0,2-.6,2-1.5s-.8-1.6-2-1.6-2,.7-2,1.6c0,.9.7,1.5,2,1.5ZM38.1,163.7c1,0,1.7-.6,1.7-1.4s-.7-1.4-1.7-1.4-1.7.6-1.7,1.4.7,1.4,1.7,1.4Z"/>
      </g>
      <g class="teeth">
        <path class="tooth cls-3" d="M64.3,128.8c0,6.8-.2,10.3-.6,13.7-.1,1.1-.4,2.7-.8,4.3-.4,1.7-.9,3.5-1.7,5.1s-1.7,3-2.9,4c-1.2.9-2.6,1.4-4.4,1.2-1.4-.2-2.6-1.5-3.5-3.6-.9-2.1-1.5-5-1.9-7.9-.8-5.9-.6-12.3-.6-14.3,0-.2,0-.4,0-.6.1-2.6.2-4.8.7-6.4.2-.9.6-1.5,1-1.9.4-.4.9-.6,1.7-.7.7,0,1.8.3,3.3.8,1.4.5,3,1.2,4.4,2,1.5.8,2.8,1.6,3.8,2.4.5.4.9.8,1.1,1.1.3.3.4.6.4.7Z"/>
        <path class="tooth cls-1" d="M48.3,176.2v-1.1l4.1-6.3h1.7v6.2h1.3v1.2h-1.3v1.8h-1.3v-1.8h-4.5ZM49.8,175h3v-4.6h-.1l-2.9,4.5h0ZM57.1,178l4.1-7.9h0c0,0-4.7,0-4.7,0v-1.2h6.2v1.2l-4.1,7.9h-1.5Z"/>
      </g>
      <g class="teeth">
        <path class="tooth cls-3" d="M85.9,146.4h0s0,0,0,0c-.1,2.5-.6,6.5-1.9,9.9-.7,1.8-1.7,3.4-3,4.5-1.2,1.1-2.8,1.8-4.9,1.7,0,0,0,0-.1,0-.8,0-1.6-.4-2.4-1-.7-.6-1.4-1.5-2-2.6-1.2-2.2-2.2-5.2-2.9-8.4-1.4-6.3-1.8-13.2-1.7-15.3,0-1.1,0-2.2,0-3.2,0-.4,0-.7,0-1,0-1.3,0-2.4.2-3.4.2-1,.4-1.7.8-2.2.4-.5,1-.8,1.8-.9.8,0,2.2.1,3.8.6,1.6.4,3.4,1,5.2,1.8,1.7.7,3.3,1.5,4.5,2.3.6.4,1.1.8,1.4,1.1.3.4.4.6.5.8,0,.4,0,.9,0,1.3.5,6.6.6,10.1.4,13.6v.5Z"/>
        <path class="tooth cls-1" d="M69.4,181.2v-1.1l4.1-6.3h1.7v6.2h1.3v1.2h-1.3v1.8h-1.3v-1.8h-4.5ZM70.9,180h3v-4.6h-.1l-2.9,4.5h0ZM81.2,183.1c-1.7,0-3.5-1-3.5-4.4s1.4-5,3.6-5,2.9,1.1,3.1,2.5h-1.4c-.2-.7-.8-1.3-1.7-1.3-1.4,0-2.2,1.2-2.2,3.3h.1c.5-.8,1.4-1.2,2.4-1.2,1.6,0,3,1.3,3,3s-1.3,3.1-3.3,3.1ZM81.2,182c1.1,0,1.9-.9,1.9-1.9s-.8-1.9-1.9-1.9-2,.9-2,1.9c0,1,.8,1.9,2,1.9Z"/>
      </g>
      <g class="teeth">
        <path class="tooth cls-3" d="M91.8,127.3c2.1-.1,6.5.2,10.6.9,2,.4,3.9.8,5.3,1.4.7.3,1.2.5,1.6.8.4.3.5.5.5.7h0c.7,8,1.2,14.6,1,19.4,0,2.7-.5,7.4-2.2,11.2-.8,1.9-2,3.6-3.5,4.8-1.5,1.2-3.5,1.9-6,1.8,0,0,0,0-.1,0-1,0-1.9-.5-2.8-1.1-.9-.7-1.7-1.7-2.4-2.9-1.5-2.4-2.6-5.7-3.4-9.1-1.7-6.8-2.2-14.2-2.3-16.5,0-.2,0-.5,0-.7-.1-3-.2-5.5.2-7.5.2-1,.6-1.8,1.1-2.4.5-.5,1.3-.9,2.3-1h0Z"/>
        <path class="tooth cls-1" d="M92.5,187.2v-1.1l4.1-6.3h1.7v6.2h1.3v1.2h-1.3v1.8h-1.3v-1.8h-4.5ZM94,186h3v-4.6h-.1l-2.9,4.5h0ZM104.1,189.1c-1.7,0-3-1.1-3.1-2.5h1.4c0,.8.8,1.4,1.8,1.4s1.9-.8,1.9-1.9-.8-1.9-2-1.9c-.7,0-1.3.2-1.6.8h-1.3l.6-5.1h5.2v1.2h-4.1l-.3,2.6h0c.4-.4,1-.6,1.7-.6,1.7,0,3,1.3,3,3.1s-1.4,3.1-3.3,3.1Z"/>
      </g>
      <g class="teeth">
        <path class="tooth cls-3" d="M137.1,153.2v1.1c-.2,2.8-.7,7.7-2.4,11.7-.9,2-2,3.8-3.6,5-1.6,1.2-3.6,2-6.2,1.8-2.2,0-4-1.6-5.5-4.1-1.5-2.5-2.6-5.9-3.5-9.4-1.7-7.1-2.3-14.8-2.5-17.2,0-.8-.1-1.7-.2-2.5,0-.5,0-1-.1-1.5-.1-1.3-.2-2.4,0-3.3,0-.9.4-1.6.8-2.1.5-.5,1.2-.8,2.3-.9,2.1-.2,7.2-.1,11.8.3,2.3.2,4.4.5,6,1,.8.2,1.4.5,1.8.7.4.3.5.5.6.6.7,7.6.8,14,.7,18.9Z"/>
        <path class="tooth cls-1" d="M118.4,191.2v-1.1l4.1-6.3h1.7v6.2h1.3v1.2h-1.3v1.8h-1.3v-1.8h-4.5ZM119.8,190h3v-4.6h-.1l-2.9,4.5h0ZM126.6,191.2v-1.1l4.1-6.3h1.7v6.2h1.3v1.2h-1.3v1.8h-1.3v-1.8h-4.5ZM128.1,190h3v-4.6h-.1l-2.9,4.5h0Z"/>
      </g>
      <g class="teeth">
        <path class="tooth cls-3" d="M167.8,157.4v.2s0,0,0,0c-.3,3.2-1.1,8.3-3.2,12.5-1.1,2.1-2.6,4-4.5,5.3-2,1.3-4.4,2-7.6,1.7-2.6-.2-4.8-2-6.5-4.8-1.7-2.8-3-6.5-3.9-10.4-1.8-7.8-2.2-16.2-2.1-19.1,0-.5,0-1,0-1.5,0-1,0-1.8,0-2.7,0-1.2.2-2.2.5-3,.3-.8.7-1.4,1.4-1.8.7-.4,1.7-.7,3.1-.7.6,0,1.3,0,2.2,0,3,0,7.3,0,11.3.4,2.6.2,5,.6,6.7,1,.9.2,1.6.5,2,.8.5.3.6.5.6.7.6,9.1.4,16-.1,21.3Z"/>
        <path class="tooth cls-1" d="M147.4,196.2v-1.1l4.1-6.3h1.7v6.2h1.3v1.2h-1.3v1.8h-1.3v-1.8h-4.5ZM148.9,195h3v-4.6h-.1l-2.9,4.5h0ZM159.1,198.1c-1.9,0-3.3-1-3.3-2.5h1.4c0,.8.9,1.3,1.9,1.3s1.9-.6,1.9-1.5-.8-1.6-2.1-1.6h-.8v-1.1h.8c1,0,1.8-.6,1.8-1.5s-.6-1.4-1.6-1.4-1.7.5-1.8,1.3h-1.3c0-1.5,1.4-2.5,3.1-2.5s2.9,1.1,2.9,2.5c0,1-.6,1.8-1.6,2h0c1.3.2,2,1.1,2,2.2s-1.4,2.7-3.3,2.7Z"/>
      </g>
      <g class="teeth">
        <path class="tooth cls-3" d="M441.7,138.3c-.3,2.4-.8,4.7-1.6,6.4s-1.9,2.9-3.4,3.2c-1.8.4-3.3.1-4.5-.5-1.2-.6-2.2-1.6-3-2.8-1.6-2.4-2.4-5.4-2.7-7.2-.5-2.6-.8-5.4-1-10.8,0,0,0-.2.3-.5.2-.3.6-.6,1.1-1,1-.7,2.3-1.5,3.7-2.3,1.4-.8,3-1.5,4.3-2,1.4-.5,2.5-.9,3.2-1,.8,0,1.3,0,1.7.4.4.3.7.7,1,1.4.5,1.2.6,2.9.8,4.9,0,.2,0,.3,0,.5.1,1.6.5,6.6-.1,11.3Z"/>
        <path class="tooth cls-1" d="M432,169.1c-1.9,0-3.3-1-3.3-2.5h1.4c0,.8.9,1.3,1.9,1.3s1.9-.6,1.9-1.5-.8-1.6-2.1-1.6h-.8v-1.1h.8c1,0,1.8-.6,1.8-1.5s-.6-1.4-1.6-1.4-1.7.5-1.8,1.3h-1.3c0-1.5,1.4-2.5,3.1-2.5s2.9,1.1,2.9,2.5c0,1-.6,1.8-1.6,2h0c1.3.2,2,1.1,2,2.2s-1.4,2.7-3.3,2.7ZM440.1,169.1c-2,0-3.4-1.1-3.4-2.6,0-1.2.8-2.1,1.9-2.3h0c-.9-.3-1.6-1.1-1.6-2.1s1.3-2.4,3-2.4,3,1,3,2.4c0,1-.6,1.8-1.6,2.1h0c1.1.2,1.9,1.2,1.9,2.4,0,1.5-1.4,2.6-3.4,2.6ZM440.1,168c1.2,0,2-.6,2-1.5s-.8-1.6-2-1.6-2,.7-2,1.6c0,.9.7,1.5,2,1.5ZM440.1,163.7c1,0,1.7-.6,1.7-1.4s-.7-1.4-1.7-1.4-1.7.6-1.7,1.4.7,1.4,1.7,1.4Z"/>
      </g>
      <g class="teeth">
        <path class="tooth cls-3" d="M421.5,145.6c-.4,3-1,5.8-1.9,7.9-.9,2.2-2.1,3.4-3.5,3.6-1.8.2-3.2-.3-4.4-1.2-1.2-1-2.2-2.4-2.9-4s-1.3-3.4-1.7-5.1c-.4-1.7-.6-3.2-.8-4.3-.4-3.4-.6-6.9-.6-13.7,0-.1,0-.4.4-.7.2-.3.6-.7,1.1-1.1,1-.8,2.3-1.6,3.8-2.4,1.5-.8,3-1.5,4.4-2,1.4-.5,2.6-.8,3.3-.8.8,0,1.3.3,1.7.7.4.4.7,1.1,1,1.9.4,1.6.5,3.9.7,6.4,0,.2,0,.4,0,.6,0,2,.2,8.3-.6,14.3Z"/>
        <path class="tooth cls-1" d="M411.9,178.1c-1.9,0-3.3-1-3.3-2.5h1.4c0,.8.9,1.3,1.9,1.3s1.9-.6,1.9-1.5-.8-1.6-2.1-1.6h-.8v-1.1h.8c1,0,1.8-.6,1.8-1.5s-.6-1.4-1.6-1.4-1.7.5-1.8,1.3h-1.3c0-1.5,1.4-2.5,3.1-2.5s2.9,1.1,2.9,2.5c0,1-.6,1.8-1.6,2h0c1.3.2,2,1.1,2,2.2s-1.4,2.7-3.3,2.7ZM417,178l4.1-7.9h0c0,0-4.7,0-4.7,0v-1.2h6.2v1.2l-4.1,7.9h-1.5Z"/>
      </g>
      <g class="teeth">
        <path class="tooth cls-3" d="M401.3,150.5c-.7,3.2-1.7,6.2-2.9,8.4-.6,1.1-1.3,2-2,2.6-.7.6-1.5,1-2.4,1-2.1.1-3.7-.6-5-1.7-1.3-1.1-2.2-2.7-3-4.5-1.3-3.4-1.8-7.3-1.9-9.9h0s0-.5,0-.5c-.2-3.7,0-7.4.5-14.8,0-.2.1-.4.5-.8.3-.3.8-.7,1.4-1.1,1.2-.8,2.8-1.6,4.5-2.3,1.7-.7,3.6-1.3,5.2-1.8,1.6-.4,3-.7,3.8-.6.9,0,1.5.4,1.8.9.4.5.7,1.2.8,2.2.2,1,.2,2.1.2,3.4,0,.3,0,.7,0,1,0,1,0,2.1,0,3.2.1,2.1-.3,8.9-1.7,15.3Z"/>
        <path class="tooth cls-1" d="M389,183.1c-1.9,0-3.3-1-3.3-2.5h1.4c0,.8.9,1.3,1.9,1.3s1.9-.6,1.9-1.5-.8-1.6-2.1-1.6h-.8v-1.1h.8c1,0,1.8-.6,1.8-1.5s-.6-1.4-1.6-1.4-1.7.5-1.8,1.3h-1.3c0-1.5,1.4-2.5,3.1-2.5s2.9,1.1,2.9,2.5c0,1-.6,1.8-1.6,2h0c1.3.2,2,1.1,2,2.2s-1.4,2.7-3.3,2.7ZM397.1,183.1c-1.7,0-3.5-1-3.5-4.4s1.4-5,3.6-5,2.9,1.1,3.1,2.5h-1.4c-.2-.7-.8-1.3-1.7-1.3-1.4,0-2.2,1.2-2.2,3.3h.1c.5-.8,1.4-1.2,2.4-1.2,1.6,0,3,1.3,3,3s-1.3,3.1-3.3,3.1ZM397.1,182c1.1,0,1.9-.9,1.9-1.9s-.8-1.9-1.9-1.9-2,.9-2,1.9c0,1,.8,1.9,2,1.9Z"/>
      </g>
      <g class="teeth">
        <path class="tooth cls-3" d="M356.9,138c0,.5,0,1-.2,1.5,0,.8-.2,1.7-.2,2.5-.2,2.5-.7,10.2-2.5,17.2-.9,3.6-2,6.9-3.5,9.4-1.5,2.5-3.3,4-5.5,4.1-2.6.1-4.6-.6-6.2-1.8-1.6-1.2-2.8-3-3.6-5-1.7-4-2.2-8.9-2.3-11.7v-1.1c-.2-4.9,0-11.2.6-18.9,0-.1.1-.4.6-.6.4-.3,1-.5,1.8-.7,1.6-.4,3.7-.8,6-1,4.6-.4,9.7-.5,11.8-.3,1.1,0,1.8.4,2.3.9.5.5.7,1.2.8,2.1.1,1,0,2.1,0,3.3Z"/>
        <path class="tooth cls-1" d="M339.9,193.1c-1.9,0-3.3-1-3.3-2.5h1.4c0,.8.9,1.3,1.9,1.3s1.9-.6,1.9-1.5-.8-1.6-2.1-1.6h-.8v-1.1h.8c1,0,1.8-.6,1.8-1.5s-.6-1.4-1.6-1.4-1.7.5-1.8,1.3h-1.3c0-1.5,1.4-2.5,3.1-2.5s2.9,1.1,2.9,2.5c0,1-.6,1.8-1.6,2h0c1.3.2,2,1.1,2,2.2s-1.4,2.7-3.3,2.7ZM344.5,191.2v-1.1l4.1-6.3h1.7v6.2h1.3v1.2h-1.3v1.8h-1.3v-1.8h-4.5ZM346,190h3v-4.6h-.1l-2.9,4.5h0Z"/>
      </g>
      <g class="teeth">
        <path class="tooth cls-3" d="M327.9,161.9c-.9,3.9-2.2,7.6-3.9,10.4-1.7,2.8-3.9,4.6-6.5,4.8-3.1.3-5.6-.4-7.6-1.7-2-1.3-3.4-3.2-4.5-5.3-2.2-4.2-2.9-9.3-3.2-12.5h0s0-.2,0-.2c-.5-5.3-.7-12.3-.1-21.3,0-.2.1-.4.6-.7.5-.3,1.1-.5,2-.8,1.8-.5,4.1-.8,6.7-1,4-.3,8.3-.4,11.3-.4s1.6,0,2.2,0c1.4,0,2.4.3,3.1.7.7.4,1.1,1,1.4,1.8.3.8.4,1.8.5,3,0,.8,0,1.7,0,2.7,0,.5,0,1,0,1.5,0,2.9-.3,11.3-2.1,19.1Z"/>
        <path class="tooth cls-1" d="M312,198.1c-1.9,0-3.3-1-3.3-2.5h1.4c0,.8.9,1.3,1.9,1.3s1.9-.6,1.9-1.5-.8-1.6-2.1-1.6h-.8v-1.1h.8c1,0,1.8-.6,1.8-1.5s-.6-1.4-1.6-1.4-1.7.5-1.8,1.3h-1.3c0-1.5,1.4-2.5,3.1-2.5s2.9,1.1,2.9,2.5c0,1-.6,1.8-1.6,2h0c1.3.2,2,1.1,2,2.2s-1.4,2.7-3.3,2.7ZM320.1,198.1c-1.9,0-3.3-1-3.3-2.5h1.4c0,.8.9,1.3,1.9,1.3s1.9-.6,1.9-1.5-.8-1.6-2.1-1.6h-.8v-1.1h.8c1,0,1.8-.6,1.8-1.5s-.6-1.4-1.6-1.4-1.7.5-1.8,1.3h-1.3c0-1.5,1.4-2.5,3.1-2.5s2.9,1.1,2.9,2.5c0,1-.6,1.8-1.6,2h0c1.3.2,2,1.1,2,2.2s-1.4,2.7-3.3,2.7Z"/>
      </g>
      <path class="tooth cls-2" d="M298,139.8c0,.6,0,1.3,0,2M298,141.8v2.1M271.9,156.3h-.5M271.9,156.3h-.5M271.9,156.3h-.5"/>
      <g class="teeth">
        <path class="tooth cls-3" d="M234,116c0,.2-.1.4-.6.7-.5.3-1.2.5-2.2.8-1.9.5-4.6.7-7.4.9-5.4.3-11.4,0-14.3-.2-.2,0-.3,0-.4,0-.4,0-.7,0-1.1-.1-1-.1-1.9-.2-2.6-.3-.9-.2-1.5-.3-1.9-.6-.4-.3-.7-.7-.9-1.3-.2-.7-.4-1.6-.6-3-.8-5.4-1.9-11.8-2-22v-.4c0-6.9,1.5-13,4.8-17.4,3.3-4.4,8.5-7,15.9-6.5,1.6,0,3,.6,4.3,1.4s2.3,1.9,3.3,3.2c1.9,2.6,3.1,6,4,9.5.8,3.4,1.3,6.8,1.5,9.4.1,1.3.2,2.3.2,3.1,0,.1,0,.2,0,.3v3.7c0,1.8,0,4.2,0,6.7,0,5,0,10.5,0,12.2Z"/>
        <path class="tooth cls-1" d="M215,45.8v9.2h-1.4v-7.8h0l-2.2,1.4v-1.3l2.3-1.5h1.4ZM220.8,45.8v9.2h-1.4v-7.8h0l-2.2,1.4v-1.3l2.3-1.5h1.4Z"/>
      </g>
      <g class="teeth">
        <path class="tooth cls-3" d="M298,139.8v1.9c0,0,0,0,0,0,0,.7,0,1.4,0,2.1,0,2.4-.7,11.4-2.9,19.9-1.1,4.2-2.5,8.3-4.3,11.3-1.8,3-4.1,4.9-6.7,5.1-3.1.2-5.3-1.2-7.1-3.3-1.7-2.2-2.9-5.2-3.7-8.2-.8-3.1-1.1-6.2-1.3-8.5,0-1.2-.1-2.1-.2-2.8h0c0-.4,0-.6,0-.8v-1c0-.5,0-1.2,0-2,0-1.7,0-3.9-.1-6.3,0-4.7-.2-9.9-.3-11.5,0-.1,0-.3.5-.5.4-.2,1.1-.5,2-.6,1.8-.3,4.2-.5,6.9-.6,4-.1,8.5,0,11.5,0,.9,0,1.7,0,2.4,0,1.1,0,1.8.3,2.2.7.5.4.8,1,.9,1.9.2.9.2,1.9.2,3.2Z"/>
        <path class="tooth cls-1" d="M279.7,201.1c-1.9,0-3.3-1-3.3-2.5h1.4c0,.8.9,1.3,1.9,1.3s1.9-.6,1.9-1.5-.8-1.6-2.1-1.6h-.8v-1.1h.8c1,0,1.8-.6,1.8-1.5s-.6-1.4-1.6-1.4-1.7.5-1.8,1.3h-1.3c0-1.5,1.4-2.5,3.1-2.5s2.9,1.1,2.9,2.5c0,1-.6,1.8-1.6,2h0c1.3.2,2,1.1,2,2.2s-1.4,2.7-3.3,2.7ZM284.5,201v-1l3.2-3.2c1-1.1,1.5-1.6,1.5-2.4s-.7-1.5-1.7-1.5-1.7.6-1.7,1.6h-1.3c0-1.7,1.3-2.8,3-2.8s3,1.1,3,2.6c0,1-.5,1.8-2.2,3.5l-1.9,1.9h0c0,0,4.2,0,4.2,0v1.2h-6.2Z"/>
      </g>
      <g class="teeth">
        <path class="tooth cls-3" d="M198.6,135.8c0,1.6-.2,6.7-.3,11.5,0,2.4,0,4.6-.1,6.3,0,.8,0,1.5,0,2v.6s0,.5,0,.5c0,.2,0,.4,0,.7h0c0,.8,0,1.8-.2,2.9-.2,2.3-.5,5.4-1.3,8.5-.8,3.1-1.9,6.1-3.7,8.2-1.7,2.2-4,3.5-7.1,3.3-2.6-.1-4.8-2-6.7-5.1-1.8-3-3.2-7.1-4.3-11.3-2.1-8.5-2.8-17.5-2.9-19.9v-4.1c-.1-1.2,0-2.3,0-3.2.2-.9.5-1.5,1-1.9.5-.4,1.2-.7,2.2-.7.6,0,1.4,0,2.4,0,3,0,7.5-.2,11.5,0,2.7,0,5.1.3,6.9.6.9.2,1.6.4,2,.6.5.2.5.4.5.5Z"/>
        <path class="tooth cls-1" d="M178.1,199.2v-1.1l4.1-6.3h1.7v6.2h1.3v1.2h-1.3v1.8h-1.3v-1.8h-4.5ZM179.6,198h3v-4.6h-.1l-2.9,4.5h0ZM186.6,201v-1l3.2-3.2c1-1.1,1.5-1.6,1.5-2.4s-.7-1.5-1.7-1.5-1.7.6-1.7,1.6h-1.3c0-1.7,1.3-2.8,3-2.8s3,1.1,3,2.6c0,1-.5,1.8-2.2,3.5l-1.9,1.9h0c0,0,4.2,0,4.2,0v1.2h-6.2Z"/>
      </g>
      <g class="teeth">
        <path class="tooth cls-3" d="M270.1,90.4v.4c0,10.1-1.1,16.6-2,22-.2,1.3-.4,2.3-.6,3-.2.7-.5,1.1-.9,1.3-.4.3-1,.5-1.9.6-.7.1-1.5.2-2.6.3-.3,0-.7,0-1.1.1h0c-.1,0-.3,0-.4,0-2.9.3-8.9.5-14.3.2-2.8-.1-5.5-.4-7.4-.9-1-.2-1.7-.5-2.2-.8-.5-.3-.6-.5-.6-.7,0-1.8,0-7.2,0-12.2,0-2.5,0-4.9,0-6.7v-1.8s0-2,0-2c0,0,0-.2,0-.3,0-.7,0-1.8.2-3.1.2-2.5.6-6,1.5-9.4.8-3.4,2.1-6.8,4-9.5.9-1.3,2-2.4,3.3-3.2,1.2-.8,2.7-1.3,4.3-1.4,7.4-.5,12.6,2.1,15.9,6.5,3.3,4.3,4.8,10.5,4.8,17.4Z"/>
        <path class="tooth cls-1" d="M246.5,55v-1l3.2-3.2c1-1.1,1.5-1.6,1.5-2.4s-.7-1.5-1.7-1.5-1.7.6-1.7,1.6h-1.3c0-1.7,1.3-2.8,3-2.8s3,1.1,3,2.6c0,1-.5,1.8-2.2,3.5l-1.9,1.9h0c0,0,4.2,0,4.2,0v1.2h-6.2ZM257.8,45.8v9.2h-1.4v-7.8h0l-2.2,1.4v-1.3l2.3-1.5h1.4Z"/>
      </g>
      <g class="teeth">
        <path class="tooth cls-3" d="M303.3,97.9c0,5.1-.2,10-1.1,13.7-.5,1.8-1.1,3.3-1.9,4.3-.8,1-1.8,1.6-3.2,1.7-3,.2-8.7.5-13.8.2-2.6-.1-5-.4-6.8-.8-.9-.2-1.7-.5-2.2-.8-.6-.3-.9-.6-1-.9-.3-.7-.5-2-.5-3.5,0-1.5,0-3.3,0-5.1.1-2.8.3-5.7.5-8,0-.7,0-1.3.1-1.9v-.5c.4-4.3,1.4-11.7,3.5-18,1.1-3.3,2.5-6.3,4.3-8.5,1.8-2.1,3.8-3.4,6.3-3.3,6.3.2,10.2,4.3,12.6,10.4,2.4,6,3.2,13.9,3.2,21Z"/>
        <path class="tooth cls-1" d="M280.6,55v-1l3.2-3.2c1-1.1,1.5-1.6,1.5-2.4s-.7-1.5-1.7-1.5-1.7.6-1.7,1.6h-1.3c0-1.7,1.3-2.8,3-2.8s3,1.1,3,2.6c0,1-.5,1.8-2.2,3.5l-1.9,1.9h0c0,0,4.2,0,4.2,0v1.2h-6.2ZM288.3,55v-1l3.2-3.2c1-1.1,1.5-1.6,1.5-2.4s-.7-1.5-1.7-1.5-1.7.6-1.7,1.6h-1.3c0-1.7,1.3-2.8,3-2.8s3,1.1,3,2.6c0,1-.5,1.8-2.2,3.5l-1.9,1.9h0c0,0,4.2,0,4.2,0v1.2h-6.2Z"/>
      </g>
      <g class="teeth">
        <path class="tooth cls-3" d="M331.3,106.5c-.4,2.7-.9,5.3-1.7,7.2-.8,2-1.7,3.2-2.7,3.6-2.5.9-6.7,1.2-10.7.5-4-.8-7.7-2.6-9.2-6.1-.8-1.8-1.3-4.1-1.5-6.7s-.2-5.3,0-7.8c.1-2.5.4-4.8.6-6.5,0-.8.2-1.5.3-2,0-.2,0-.4,0-.5,0,0,0,0,0-.1s0,0,0,0h0s0,0,0,0h0c0,0,0-.1,0-.2,0-.2,0-.4.2-.7.2-.6.4-1.5.7-2.6.6-2.1,1.5-4.9,2.8-7.7,1.3-2.8,2.9-5.5,4.8-7.5,1.7-1.8,3.7-2.8,5.9-2.8s.5,0,.7,0c1.7.2,3.3,1.2,4.6,2.9,1.3,1.7,2.5,4,3.4,6.6,1.8,5.1,2.6,11.1,2.7,14.9,0,3.8,0,10.1-.8,15.6Z"/>
        <path class="tooth cls-1" d="M311.4,55v-1l3.2-3.2c1-1.1,1.5-1.6,1.5-2.4s-.7-1.5-1.7-1.5-1.7.6-1.7,1.6h-1.3c0-1.7,1.3-2.8,3-2.8s3,1.1,3,2.6c0,1-.5,1.8-2.2,3.5l-1.9,1.9h0c0,0,4.2,0,4.2,0v1.2h-6.2ZM322.4,55.1c-1.9,0-3.3-1-3.3-2.5h1.4c0,.8.9,1.3,1.9,1.3s1.9-.6,1.9-1.5-.8-1.6-2.1-1.6h-.8v-1.1h.8c1,0,1.8-.6,1.8-1.5s-.6-1.4-1.6-1.4-1.7.5-1.8,1.3h-1.3c0-1.5,1.4-2.5,3.1-2.5s2.9,1.1,2.9,2.5c0,1-.6,1.8-1.6,2h0c1.3.2,2,1.1,2,2.2s-1.4,2.7-3.3,2.7Z"/>
      </g>
      <g class="teeth">
        <path class="tooth cls-3" d="M360.1,86.9c0,.9,0,1.7,0,2.5,0,3.5-.4,9.4-1.4,14.7-.5,2.6-1.1,5.1-1.9,6.9-.4.9-.8,1.7-1.3,2.3-.5.6-.9,1-1.4,1.1-2.2.8-6.1.6-9.9-.5-3.8-1.2-7.2-3.4-8.7-6.5-1.5-3.2-1.7-8.3-1.4-13.5.4-5.1,1.3-10.3,2.3-13.5h0c.8-2.6,2.3-6.4,4.9-9.4,2.5-3,6-5.1,10.7-4.3,4.5.8,6.6,4.6,7.4,9.2.7,3.7.6,7.7.6,11.1Z"/>
        <path class="tooth cls-1" d="M340.4,55v-1l3.2-3.2c1-1.1,1.5-1.6,1.5-2.4s-.7-1.5-1.7-1.5-1.7.6-1.7,1.6h-1.3c0-1.7,1.3-2.8,3-2.8s3,1.1,3,2.6c0,1-.5,1.8-2.2,3.5l-1.9,1.9h0c0,0,4.2,0,4.2,0v1.2h-6.2ZM347.7,53.2v-1.1l4.1-6.3h1.7v6.2h1.3v1.2h-1.3v1.8h-1.3v-1.8h-4.5ZM349.2,52h3v-4.6h-.1l-2.9,4.5h0Z"/>
      </g>
      <g class="teeth">
        <path class="tooth cls-3" d="M407.9,85.5c0,2.8-.6,7.5-1.7,11.6-.5,2.1-1.2,4-1.8,5.5-.3.7-.7,1.3-1.1,1.8-.4.5-.7.7-1,.9-1.5.6-4.2.6-6.7-.3-1.3-.4-2.5-1-3.5-1.9-1-.8-1.9-1.9-2.4-3.1-1-2.6-1.3-6.7-1.1-11,.2-4.2.8-8.4,1.5-11.1h0c.5-1.9,1.6-5,3.4-7.4,1.8-2.5,4.3-4.2,7.5-3.5,3.1.6,4.9,3.7,5.9,7.5,1,3.8,1.1,8.2,1.1,11Z"/>
        <path class="tooth cls-1" d="M391.4,55v-1l3.2-3.2c1-1.1,1.5-1.6,1.5-2.4s-.7-1.5-1.7-1.5-1.7.6-1.7,1.6h-1.3c0-1.7,1.3-2.8,3-2.8s3,1.1,3,2.6c0,1-.5,1.8-2.2,3.5l-1.9,1.9h0c0,0,4.2,0,4.2,0v1.2h-6.2ZM402.5,55.1c-1.7,0-3.5-1-3.5-4.4s1.4-5,3.6-5,2.9,1.1,3.1,2.5h-1.4c-.2-.7-.8-1.3-1.7-1.3-1.4,0-2.2,1.2-2.2,3.3h.1c.5-.8,1.4-1.2,2.4-1.2,1.6,0,3,1.3,3,3s-1.3,3.1-3.3,3.1ZM402.4,54c1.1,0,1.9-.9,1.9-1.9s-.8-1.9-1.9-1.9-2,.9-2,1.9c0,1,.8,1.9,2,1.9Z"/>
      </g>
      <g class="teeth">
        <path class="tooth cls-3" d="M427.1,82.4c0,2.4-.5,6.4-1.4,9.9-.5,1.8-1,3.4-1.6,4.7-.3.6-.6,1.1-.9,1.5-.3.4-.6.6-.8.7-1.3.5-3.5.5-5.8-.2-1.1-.4-2.1-.9-3-1.6-.9-.7-1.6-1.6-2-2.7-.9-2.2-1.1-5.7-1-9.3.1-3.6.7-7.2,1.2-9.5v-.4c.6-1.6,1.5-4,2.9-5.9,1.6-2.1,3.7-3.5,6.4-3,2.7.5,4.2,3.1,5,6.4.8,3.3.9,7,1,9.4Z"/>
        <path class="tooth cls-1" d="M411.8,55v-1l3.2-3.2c1-1.1,1.5-1.6,1.5-2.4s-.7-1.5-1.7-1.5-1.7.6-1.7,1.6h-1.3c0-1.7,1.3-2.8,3-2.8s3,1.1,3,2.6c0,1-.5,1.8-2.2,3.5l-1.9,1.9h0c0,0,4.2,0,4.2,0v1.2h-6.2ZM419.9,55l4.1-7.9h0c0,0-4.7,0-4.7,0v-1.2h6.2v1.2l-4.1,7.9h-1.5Z"/>
      </g>
      <g class="teeth">
        <path class="tooth cls-3" d="M444,79.6c0,2-.5,5.3-1.3,8.2-.4,1.5-.9,2.8-1.4,3.8-.3.5-.5.9-.8,1.2-.3.3-.5.5-.7.6-1.2.4-3.2.4-5.2-.2-2-.6-3.8-1.8-4.5-3.5-.8-1.8-1-4.7-.9-7.7.1-3,.6-6,1.1-7.8.4-1.3,1.2-3.5,2.6-5.2,1.4-1.7,3.3-2.9,5.7-2.5,2.4.4,3.8,2.6,4.5,5.2.8,2.7.8,5.8.9,7.8Z"/>
        <path class="tooth cls-1" d="M429.4,55v-1l3.2-3.2c1-1.1,1.5-1.6,1.5-2.4s-.7-1.5-1.7-1.5-1.7.6-1.7,1.6h-1.3c0-1.7,1.3-2.8,3-2.8s3,1.1,3,2.6c0,1-.5,1.8-2.2,3.5l-1.9,1.9h0c0,0,4.2,0,4.2,0v1.2h-6.2ZM440.4,55.1c-2,0-3.4-1.1-3.4-2.6,0-1.2.8-2.1,1.9-2.3h0c-.9-.3-1.6-1.1-1.6-2.1s1.3-2.5,3-2.5,3,1,3,2.5c0,1-.6,1.8-1.6,2.1h0c1.1.2,1.9,1.2,1.9,2.4,0,1.5-1.4,2.6-3.4,2.6ZM440.4,54c1.2,0,2-.6,2-1.5s-.8-1.6-2-1.6-2,.7-2,1.6c0,.9.7,1.5,2,1.5ZM440.4,49.7c1,0,1.6-.6,1.6-1.4s-.7-1.4-1.6-1.4-1.7.6-1.7,1.4.7,1.4,1.7,1.4Z"/>
      </g>
      <g class="teeth">
        <path class="tooth cls-3" d="M197.2,111.9c0,1.5-.2,2.8-.5,3.5-.1.3-.4.6-1,.9-.5.3-1.3.6-2.2.8-1.8.4-4.2.7-6.8.8-5.1.2-10.9,0-13.8-.2-1.3,0-2.3-.7-3.2-1.7-.8-1-1.5-2.5-1.9-4.3-.9-3.7-1.1-8.6-1.1-13.7s.8-15,3.2-21c2.4-6,6.3-10.2,12.6-10.4,2.4,0,4.5,1.2,6.3,3.3,1.8,2.1,3.2,5.1,4.3,8.5,2.1,6.3,3.2,13.7,3.5,18v.5c0,.6.1,1.2.2,1.9.2,2.3.4,5.2.5,8,0,1.8,0,3.6,0,5.1Z"/>
        <path class="tooth cls-1" d="M179,45.8v9.2h-1.4v-7.8h0l-2.2,1.4v-1.3l2.3-1.5h1.4ZM181.4,55v-1l3.2-3.2c1-1.1,1.5-1.6,1.5-2.4s-.7-1.5-1.7-1.5-1.7.6-1.7,1.6h-1.3c0-1.7,1.3-2.8,3-2.8s3,1.1,3,2.6c0,1-.5,1.8-2.2,3.5l-1.9,1.9h0c0,0,4.2,0,4.2,0v1.2h-6.2Z"/>
      </g>
      <g class="teeth">
        <path class="tooth cls-3" d="M164.5,105.1c-.2,2.6-.7,4.9-1.5,6.7-1.6,3.4-5.2,5.3-9.2,6.1-4,.8-8.2.4-10.7-.5-1.1-.4-2-1.6-2.8-3.6-.7-1.9-1.3-4.5-1.7-7.2-.8-5.5-.9-11.7-.8-15.6,0-3.8.9-9.8,2.7-14.9.9-2.5,2-4.9,3.3-6.6,1.4-1.7,2.9-2.8,4.6-2.9.2,0,.5,0,.7,0,2.2,0,4.2,1.1,5.9,2.8,1.9,2,3.5,4.7,4.8,7.5,1.3,2.8,2.2,5.6,2.8,7.7.3,1.1.5,2,.7,2.6,0,.3.1.5.2.7,0,0,0,.1,0,.2h0s0,0,0,0h0s0,0,0,0c0,0,0,0,0,.1,0,.1,0,.3,0,.5,0,.5.2,1.1.3,2,.2,1.7.4,4,.6,6.5.1,2.5.2,5.3,0,7.8Z"/>
        <path class="tooth cls-1" d="M147.8,45.8v9.2h-1.4v-7.8h0l-2.2,1.4v-1.3l2.3-1.5h1.4ZM153.4,55.1c-1.9,0-3.3-1-3.3-2.5h1.4c0,.8.9,1.3,1.9,1.3s1.9-.6,1.9-1.5-.8-1.6-2.1-1.6h-.8v-1.1h.8c1,0,1.8-.6,1.8-1.5s-.6-1.4-1.6-1.4-1.7.5-1.8,1.3h-1.3c0-1.5,1.4-2.5,3.1-2.5s2.9,1.1,2.9,2.5c0,1-.6,1.8-1.6,2h0c1.3.2,2,1.1,2,2.2s-1.4,2.7-3.3,2.7Z"/>
      </g>
      <g class="teeth">
        <path class="tooth cls-3" d="M105.7,103c-1.2,2.8-4,4.6-7.1,5.5-3.1,1-6.2,1-8.1.3-.4-.1-.8-.5-1.2-1-.4-.5-.9-1.2-1.3-2-.8-1.6-1.6-3.7-2.2-6-1.2-4.6-2-9.7-2-12.8,0-3.1.2-7.9,1.3-12.1,1.2-4.2,3.3-7.6,7.1-8.3,3.8-.7,6.8,1.2,9,3.8s3.5,6.1,4.1,8.2c.8,2.9,1.5,7.6,1.7,12.2.2,4.7-.1,9.2-1.4,12.1Z"/>
        <path class="tooth cls-1" d="M91.9,45.8v9.2h-1.4v-7.8h0l-2.2,1.4v-1.3l2.3-1.5h1.4ZM97.4,55.1c-1.7,0-3-1.1-3.1-2.5h1.4c0,.8.8,1.4,1.8,1.4s1.9-.8,1.9-1.9-.8-1.9-2-1.9c-.7,0-1.3.2-1.6.8h-1.3l.6-5.1h5.2v1.2h-4l-.3,2.6h0c.4-.4,1-.6,1.7-.6,1.7,0,3,1.3,3,3.1s-1.4,3.1-3.3,3.1Z"/>
      </g>
      <g class="teeth">
        <path class="tooth cls-3" d="M80.2,99.9c-.5,1.3-1.3,2.3-2.4,3.1-1,.8-2.2,1.5-3.5,1.9-2.6.9-5.2.9-6.7.3-.3-.1-.6-.4-1-.9-.4-.5-.7-1.1-1.1-1.8-.7-1.5-1.3-3.4-1.8-5.5-1.1-4.1-1.7-8.8-1.7-11.6,0-2.8.1-7.2,1.1-11,1-3.9,2.8-6.9,5.9-7.5,3.2-.6,5.6,1.1,7.5,3.5,1.8,2.4,2.9,5.5,3.4,7.4h0s0,0,0,0c.7,2.7,1.3,6.9,1.4,11.1.2,4.2,0,8.4-1.1,11Z"/>
        <path class="tooth cls-1" d="M67.8,45.8v9.2h-1.4v-7.8h0l-2.2,1.4v-1.3l2.3-1.5h1.4ZM73.5,55.1c-1.7,0-3.5-1-3.5-4.4s1.4-5,3.6-5,2.9,1.1,3.1,2.5h-1.4c-.2-.7-.8-1.3-1.7-1.3-1.4,0-2.2,1.2-2.2,3.3h.1c.5-.8,1.4-1.2,2.4-1.2,1.6,0,3,1.3,3,3s-1.3,3.1-3.3,3.1ZM73.5,54c1.1,0,1.9-.9,1.9-1.9s-.8-1.9-1.9-1.9-2,.9-2,1.9c0,1,.8,1.9,2,1.9Z"/>
      </g>
      <g class="teeth">
        <path class="tooth cls-3" d="M58.5,94.8c-.4,1.1-1.1,2-2,2.7-.9.7-1.9,1.2-3,1.6-2.2.7-4.5.7-5.8.2-.2-.1-.5-.3-.8-.7s-.6-.9-.9-1.5c-.6-1.3-1.1-2.9-1.6-4.7-.9-3.5-1.5-7.5-1.4-9.9,0-2.4.1-6.1,1-9.4.8-3.3,2.4-5.9,5-6.4,2.7-.5,4.8.9,6.4,3,1.4,1.9,2.4,4.3,2.8,5.9v.4c.7,2.3,1.2,5.9,1.3,9.5.2,3.6,0,7.2-1,9.3Z"/>
        <path class="tooth cls-1" d="M48.3,45.8v9.2h-1.4v-7.8h0l-2.2,1.4v-1.3l2.3-1.5h1.4ZM50.9,55l4.1-7.9h0c0,0-4.7,0-4.7,0v-1.2h6.2v1.2l-4.1,7.9h-1.5Z"/>
      </g>
      <g class="teeth">
        <path class="tooth cls-3" d="M40,89.8c-.8,1.7-2.5,2.9-4.5,3.5-2,.6-4,.6-5.2.2-.2,0-.5-.3-.7-.6-.3-.3-.5-.7-.8-1.2-.5-1-1-2.4-1.4-3.8-.8-2.9-1.3-6.2-1.3-8.2,0-2,.1-5.1.9-7.8.8-2.7,2.1-4.8,4.5-5.2,2.5-.4,4.3.8,5.7,2.5,1.4,1.7,2.3,3.9,2.6,5.2.5,1.9,1,4.9,1.1,7.8.1,3,0,5.9-.9,7.7Z"/>
        <path class="tooth cls-1" d="M29.9,45.8v9.2h-1.4v-7.8h0l-2.2,1.4v-1.3l2.3-1.5h1.4ZM35.4,55.1c-2,0-3.4-1.1-3.4-2.6,0-1.2.8-2.1,1.9-2.3h0c-.9-.3-1.6-1.1-1.6-2.1s1.3-2.5,3-2.5,3,1,3,2.5c0,1-.6,1.8-1.6,2.1h0c1.1.2,1.9,1.2,1.9,2.4,0,1.5-1.4,2.6-3.4,2.6ZM35.4,54c1.2,0,2-.6,2-1.5s-.8-1.6-2-1.6-2,.7-2,1.6c0,.9.7,1.5,2,1.5ZM35.4,49.7c1,0,1.7-.6,1.7-1.4s-.7-1.4-1.7-1.4-1.7.6-1.7,1.4.7,1.4,1.7,1.4Z"/>
      </g>
      <g class="teeth">
        <path class="tooth cls-3" d="M134.4,107.4c-1.4,3.2-4.9,5.3-8.7,6.5-3.8,1.2-7.7,1.3-9.9.5-.5-.2-.9-.5-1.4-1.1-.5-.6-.9-1.4-1.3-2.3-.8-1.9-1.4-4.3-1.9-6.9-1-5.3-1.4-11.2-1.4-14.7,0-.8,0-1.6,0-2.5,0-3.3-.1-7.4.6-11.1.9-4.6,2.9-8.4,7.4-9.2,4.6-.8,8.1,1.3,10.7,4.3,2.5,3,4.1,6.8,4.9,9.4h0s0,0,0,0c1,3.2,1.9,8.4,2.3,13.5.4,5.2,0,10.2-1.4,13.5Z"/>
        <path class="tooth cls-1" d="M119.1,45.9v9.2h-1.4v-7.8h0l-2.2,1.4v-1.3l2.3-1.5h1.4ZM121.2,53.3v-1.1l4.1-6.3h1.7v6.2h1.3v1.2h-1.3v1.8h-1.3v-1.8h-4.5ZM122.7,52.1h3v-4.6h-.1l-2.9,4.5h0Z"/>
      </g>
      <g class="teeth">
        <path class="tooth cls-3" d="M386.1,87.1c0,3.1-.8,8.2-2,12.8-.6,2.3-1.4,4.4-2.2,6-.4.8-.8,1.5-1.3,2-.4.5-.8.8-1.2,1-1.8.7-5,.7-8.1-.3-3.1-.9-5.9-2.8-7.1-5.5-1.2-2.8-1.5-7.4-1.4-12.1.2-4.6.9-9.3,1.7-12.2.6-2.1,1.9-5.6,4.1-8.2s5.1-4.6,9-3.8c3.8.7,5.9,4.1,7.1,8.3,1.2,4.2,1.3,9,1.3,12.1Z"/>
        <path class="tooth cls-1" d="M367.9,55v-1l3.2-3.2c1-1.1,1.5-1.6,1.5-2.4s-.7-1.5-1.7-1.5-1.7.6-1.7,1.6h-1.3c0-1.7,1.3-2.8,3-2.8s3,1.1,3,2.6c0,1-.5,1.8-2.2,3.5l-1.9,1.9h0c0,0,4.2,0,4.2,0v1.2h-6.2ZM378.8,55.1c-1.7,0-3-1.1-3.1-2.5h1.4c0,.8.8,1.4,1.8,1.4s1.9-.8,1.9-1.9-.8-1.9-2-1.9c-.7,0-1.3.2-1.6.8h-1.3l.6-5.1h5.2v1.2h-4l-.3,2.6h0c.4-.4,1-.6,1.7-.6,1.7,0,3,1.3,3,3.1s-1.4,3.1-3.3,3.1Z"/>
      </g>
      <g class="teeth">
        <path class="tooth cls-3" d="M267.8,140.7c-.2-4.3.6-8.2-5.8-8.1-2,.2-25.9-1.5-25.4,3.3,0,1.6.2,3.2.3,4.8.3,5,1,15.3,1,15.3,1,25,19.6,40.5,27.3,8.2,2.3-10.1,2.6-20,2.5-23.4Z"/>
        <path class="tooth cls-1" d="M247.9,203.1c-1.9,0-3.3-1-3.3-2.5h1.4c0,.8.9,1.3,1.9,1.3s1.9-.6,1.9-1.5-.8-1.6-2.1-1.6h-.8v-1.1h.8c1,0,1.8-.6,1.8-1.5s-.6-1.4-1.6-1.4-1.7.5-1.8,1.3h-1.3c0-1.5,1.4-2.5,3.1-2.5s2.9,1.1,2.9,2.5c0,1-.6,1.8-1.6,2h0c1.3.2,2,1.1,2,2.2s-1.4,2.7-3.3,2.7ZM256.3,193.8v9.2h-1.4v-7.8h0l-2.2,1.4v-1.3l2.3-1.5h1.4Z"/>
      </g>
      <g class="teeth">
        <path class="tooth cls-3" d="M233.4,135c-.4,6.9-.6,15.6-1.4,20.7-1.1,7.6-8.3,38.6-22.3,21.2-6.9-10.6-7.9-31.5-7.5-39.9.5-3.2,1-4.3,5.7-4.4,5,.3,20-1.5,25.4,2.4Z"/>
        <path class="tooth cls-1" d="M211.1,201.2v-1.1l4.1-6.3h1.7v6.2h1.3v1.2h-1.3v1.8h-1.3v-1.8h-4.5ZM212.6,200h3v-4.6h-.1l-2.9,4.5h0ZM223,193.8v9.2h-1.4v-7.8h0l-2.2,1.4v-1.3l2.3-1.5h1.4Z"/>
      </g>
      <g class="teeth">
        <path class="tooth cls-3" d="M381.9,138c0,.2,0,.5,0,.7,0,2.3-.6,9.7-2.3,16.5-.8,3.4-1.9,6.7-3.4,9.1-.7,1.2-1.5,2.2-2.4,2.9-.8.7-1.8,1-2.8,1.1,0,0,0,0-.1,0-2.5.1-4.4-.6-6-1.8-1.5-1.2-2.7-2.9-3.5-4.8-1.7-3.9-2.1-8.5-2.2-11.2-.2-4.8.3-11.4,1-19.4h0c0-.2.2-.4.5-.7.4-.3.9-.6,1.6-.8,1.4-.5,3.3-1,5.3-1.4,4-.7,8.5-1.1,10.6-.9h0c1.1,0,1.8.4,2.3,1,.5.5.9,1.3,1.1,2.4.4,1.9.3,4.5.2,7.5Z"/>
        <path class="tooth cls-1" d="M365.6,189.1c-1.9,0-3.3-1-3.3-2.5h1.4c0,.8.9,1.3,1.9,1.3s1.9-.6,1.9-1.5-.8-1.6-2.1-1.6h-.8v-1.1h.8c1,0,1.8-.6,1.8-1.5s-.6-1.4-1.6-1.4-1.7.5-1.8,1.3h-1.3c0-1.5,1.4-2.5,3.1-2.5s2.9,1.1,2.9,2.5c0,1-.6,1.8-1.6,2h0c1.3.2,2,1.1,2,2.2s-1.4,2.7-3.3,2.7ZM373.5,189.1c-1.7,0-3-1.1-3.1-2.5h1.4c0,.8.8,1.4,1.8,1.4s1.9-.8,1.9-1.9-.8-1.9-2-1.9c-.7,0-1.3.2-1.6.8h-1.3l.6-5.1h5.2v1.2h-4l-.3,2.6h0c.4-.4,1-.6,1.7-.6,1.7,0,3,1.3,3,3.1s-1.4,3.1-3.3,3.1Z"/>
      </g>
    </g>
  </g>
</svg>