<svg width="96" height="20" viewBox="0 0 96 20" fill="none" xmlns="http://www.w3.org/2000/svg">
<g clip-path="url(#clip0_146_2439)">
<path d="M46.9123 17.5108C46.9123 16.3959 46.0085 15.4922 44.8937 15.4922C43.7788 15.4922 42.875 16.3959 42.875 17.5108C42.875 18.6257 43.7788 19.5295 44.8937 19.5295C46.0085 19.5295 46.9123 18.6257 46.9123 17.5108Z" fill="#0067FC"/>
<path d="M56.5163 2.59246H58.566V8.0899C57.4489 6.95254 55.8865 6.70146 54.7285 6.70146C51.1626 6.70146 48.4727 9.45278 48.4727 13.1006C48.4727 16.7485 51.0548 19.5306 54.7592 19.5306C56.2807 19.5306 57.7153 18.9824 58.6016 18.0704L58.6992 19.1771H61.5372V0H56.5163V2.59246ZM55.046 16.851C52.925 16.851 51.4392 15.2986 51.4392 13.0699C51.4392 10.8412 52.889 9.3759 55.046 9.3759C57.7309 9.3759 58.6787 11.3792 58.6787 13.0955C58.6787 15.688 56.8548 16.8459 55.046 16.8459V16.851Z" fill="#212226"/>
<path d="M68.731 6.70043C64.3144 6.70043 62.3008 10.0051 62.3008 13.074C62.3008 16.9371 65.0266 19.5347 69.0842 19.5347C71.3081 19.5347 73.0296 18.9352 74.2076 17.7568L74.3105 17.6544L72.7374 15.5794L72.5993 15.6921C71.7539 16.4094 70.4574 16.85 69.2276 16.85C67.2296 16.85 65.8257 15.9431 65.4315 14.3344H74.9047L74.93 14.1909C74.9866 13.8579 75.0222 13.4429 75.0222 13.1099C75.0222 9.23653 72.5579 6.69531 68.7359 6.69531L68.731 6.70043ZM65.3954 11.8956C65.7183 10.4149 67.071 9.35439 68.7618 9.35439C70.4525 9.35439 71.7486 10.3483 71.9944 11.8956H65.4008H65.3954Z" fill="#212226"/>
<path d="M85.9105 8.12649C84.7881 6.95834 83.21 6.70215 82.0369 6.70215C78.471 6.70215 75.7812 9.45347 75.7812 13.1013C75.7812 16.7492 78.3632 19.5313 82.0676 19.5313C83.5895 19.5313 85.0237 18.9831 85.9105 18.0711L86.0076 19.1778H88.8461V7.02493H86.0076L85.9105 8.12649ZM82.3598 16.8517C80.2388 16.8517 78.753 15.2993 78.753 13.0706C78.753 10.8419 80.2027 9.37659 82.3598 9.37659C85.0442 9.37659 85.9925 11.3799 85.9925 13.0962C85.9925 15.6887 84.1681 16.8466 82.3598 16.8466V16.8517Z" fill="#212226"/>
<path d="M93.103 16.5897V0H90.1055V19.1822H95.1216V16.5897H93.103Z" fill="#212226"/>
<path d="M36.4429 6.70043C35.1006 6.70043 33.9068 7.19229 33.0256 8.08887V7.02322H30.0898V19.1812H33.0256V12.4284C33.0256 11.2398 34.0656 9.52346 35.9511 9.52346C37.5701 9.52346 38.3283 10.333 38.3283 12.0749V19.176H41.2641V11.5165C41.2641 8.45268 39.5067 6.69531 36.4429 6.69531V6.70043Z" fill="#212226"/>
<path d="M23.1526 6.70215C18.7362 6.70215 16.7227 10.0068 16.7227 13.0757C16.7227 16.9388 19.4484 19.5364 23.5061 19.5364C25.7297 19.5364 27.4512 18.9369 28.6296 17.7585L28.732 17.6561L27.1591 15.5811L27.0208 15.6938C26.1754 16.4111 24.8792 16.8517 23.6496 16.8517C23.5061 16.8517 23.3678 16.8466 23.2294 16.8363C23.1372 16.8363 23.0348 16.8363 22.9118 16.8261C21.0673 16.7031 19.561 15.1507 19.561 13.086C19.561 11.0212 20.8163 9.48932 22.9118 9.34586C23.1936 9.32537 23.378 9.33561 23.4959 9.36634C25.0944 9.47395 26.1857 10.5242 26.4163 11.9793H21.5233V14.4232H29.3264L29.352 14.2797C29.4083 13.9467 29.4442 13.5317 29.4442 13.1987C29.4442 9.32537 26.9798 6.70215 23.1577 6.70215H23.1526Z" fill="#212226"/>
<path d="M7.8901 2.4292H0V5.37005H2.46438V19.1829H7.8901C12.4961 19.1829 16.2413 15.4274 16.2413 10.8061C16.2413 6.18469 12.4961 2.4292 7.8901 2.4292ZM7.82351 16.2369H5.41034V5.37005H7.82351C10.831 5.37005 13.28 7.80883 13.28 10.8061C13.28 13.8033 10.831 16.242 7.82351 16.242V16.2369Z" fill="#212226"/>
</g>
<defs>
<clipPath id="clip0_146_2439">
<rect width="95.1219" height="20" fill="white"/>
</clipPath>
</defs>
</svg>
